HIERARCHY
ROOT hip
{
  OFFSET 0.0 0.0 0.0
  CHANNELS 6 Xposition Yposition Zposition Zrotation Yrotation Xrotation
  JOINT torso
  {
    OFFSET 0.0 0.0 0.0
    CHANNELS 3 Zrotation Xrotation Yrotation
    JOINT neck
    {
      OFFSET -31.42098999999993 328.8025209999999 74.3554680000002
      CHANNELS 3 Zrotation Xrotation Yrotation
      JOINT head
      {
        OFFSET 3.3519900000001144 303.81732099999994 206.53942900000015
        CHANNELS 3 Zrotation Xrotation Yrotation
        End Site
        {
          OFFSET 0.0 0.0 0.0
        }
      }
    }
    JOINT left_collar
    {
      OFFSET -31.42098999999993 328.8025209999999 74.3554680000002
      CHANNELS 3 Zrotation Xrotation Yrotation
      JOINT left_upper_arm
      {
        OFFSET -124.490479 -8.162841999999841 8.226441000000023
        CHANNELS 3 Zrotation Xrotation Yrotation
        JOINT left_forearm
        {
          OFFSET -253.595764 -1.5758060000000569 105.0729980000001
          CHANNELS 3 Zrotation Xrotation Yrotation
          JOINT left_hand
          {
            OFFSET -269.48803699999996 0.1478270000000066 -55.346191999999974
            CHANNELS 3 Zrotation Xrotation Yrotation
            End Site
            {
              OFFSET 0.0 0.0 0.0
            }
          }
        }
      }
    }
    JOINT right_collar
    {
      OFFSET -31.42098999999993 328.8025209999999 74.3554680000002
      CHANNELS 3 Zrotation Xrotation Yrotation
      JOINT right_upper_arm
      {
        OFFSET 162.02484099999998 0.46441600000002836 2.2303470000001653
        CHANNELS 3 Zrotation Xrotation Yrotation
        JOINT right_forearm
        {
          OFFSET 240.01246700000004 -25.835875999999985 121.34179699999959
          CHANNELS 3 Zrotation Xrotation Yrotation
          JOINT right_hand
          {
            OFFSET 252.48539699999992 18.910399999999868 -67.53466800000001
            CHANNELS 3 Zrotation Xrotation Yrotation
            End Site
            {
              OFFSET 0.0 0.0 0.0
            }
          }
        }
      }
    }
  }
}
MOTION
Frames: 18
Frame Time: 0.01
-890.8093259999998 269.09274299999976 1563.4428710000002 0.5799962869547387 -9.1602425704346 24.681757651146746 3.722479347316922 4.365846531539904 -0.2860998882257247 -1.5850302762691173 -4.449522672364867 1.1578492717049427 0.0 0.0 0.0 -1.3274619102147331 0.39570042613471895 -8.904669417390902 23.500478287277204 16.755275353595287 -24.950956809360783 12.465829272975128 1.076452199027764 -33.20483346020535 0.0 0.0 0.0 -3.495954598340526 -0.3054903864414751 -12.754020330880328 -30.885208438619618 27.043759594038228 20.99741301359756 -42.02849557538455 4.5562366362590465 51.38948044618213 0.0 0.0 0.0
-893.9757079999998 268.7550659999998 1564.0078120000003 0.36723471402365127 -9.375784431926906 24.579372758335545 3.902398382801043 4.503159777716302 -0.302458837820755 -1.5443353059165232 -4.504487500424002 1.1302997363799823 0.0 0.0 0.0 -1.268678028277486 0.399829992104123 -8.825394152062032 23.716048436976397 16.862215227836565 -24.799505939922835 12.779689028621581 1.071591918223239 -32.914193521350185 0.0 0.0 0.0 -3.591728016192969 -0.3116733976067187 -12.642899393423681 -31.256895567191023 27.137228174849287 20.6169305684537 -42.47810364343287 4.496736937510585 50.91225932081985 0.0 0.0 0.0
-897.1697389999998 268.3083799999998 1564.4204100000002 0.6249981700864474 -12.169502211318212 26.85284478471708 4.036295456088105 6.782672493621976 -0.02536199399831904 -0.7665915482173177 -4.257647764488948 0.5819713033060048 0.0 0.0 0.0 -1.8971440760892335 0.44574895362870365 -11.562254011593998 24.00499746836061 17.001159615102356 -24.586005089285187 12.965428847850387 1.054925743265904 -32.627675024274865 0.0 0.0 0.0 -4.39270591370454 -0.4800245810464016 -15.169083494854775 -31.48341666316253 27.210294069833612 20.415520357309735 -42.57829282410898 4.399566321794625 50.54685857262743 0.0 0.0 0.0
-900.0175169999998 267.7769469999998 1565.4014890000003 1.0177112534128665 -9.793271796163022 24.693474760369696 3.283977928500935 4.485622994782156 -0.18749271089538136 -1.2432377548783564 -4.22714223659612 0.9148834072477986 0.0 0.0 0.0 -0.9770507702514561 0.4488392098185839 -8.945798954540214 23.89317946946123 17.03323859731813 -24.939797647954766 13.160923132198464 1.0337164363528901 -32.30303984231761 0.0 0.0 0.0 -4.273923276090571 -0.39423301671498134 -13.114768719984314 -31.624905503180752 27.30128716095872 20.370070057202735 -43.17159287581974 4.334995260408885 49.98505171077424 0.0 0.0 0.0
-902.7672119999997 267.3283389999998 1566.2302250000002 1.332661687915568 -9.982732168149084 24.245259904395336 2.928496287387774 4.593204793897648 -0.10698376456542738 -1.181549040242718 -4.302722752351673 0.8729332986233588 0.0 0.0 0.0 -0.9483928519721666 0.4341623588892666 -8.621831232729313 24.19216188262627 17.225034757950713 -24.86914664856159 13.386601886090311 1.0101772607470134 -31.94803165158266 0.0 0.0 0.0 -4.460670194410793 -0.39870515108883503 -12.719036420897362 -31.881193715159085 27.31938393185841 20.03162245851912 -43.28562788085149 4.199071987232834 49.50249961664171 0.0 0.0 0.0
-905.5799559999998 267.4304809999998 1565.7387700000002 -0.2311216715971211 -6.586566598005162 21.845911313897666 4.045597990035541 1.9741638765815974 -0.6616502540992665 -1.8460261430355482 -5.324296936949797 1.3569733736069582 0.0 0.0 0.0 -0.6829153394291544 0.311023045839648 -5.953412021495043 24.94917547049812 17.48259545395047 -23.999747829694535 14.068317372106932 1.01188035332229 -31.53423420700665 0.0 0.0 0.0 -3.402291778396897 -0.20194077568478178 -9.26056914409161 -32.98255438058102 27.295438632042686 18.428095195962946 -44.316138314032735 4.169287707061503 48.82881482454197 0.0 0.0 0.0
-908.8196409999998 267.92864999999983 1565.6712650000002 -0.5998900525989743 -7.2429055503481505 20.797220948196927 4.212963250869952 2.877494229971699 -0.5775577325050082 -1.8759047405728657 -5.761290249474157 1.3861640140222442 0.0 0.0 0.0 -0.368062347974332 0.2911747089460005 -5.0435824887219125 25.273619695212695 17.61229121034307 -23.697877552286567 14.490319453020719 0.9924989421347162 -31.136822226029746 0.0 0.0 0.0 -3.1902907032985106 -0.16156977035120645 -8.218790641471308 -33.31468989445443 27.285321981056242 17.948683848474364 -45.00493480566406 4.10988381889181 48.28342938499627 0.0 0.0 0.0
-911.1716919999998 267.01635699999986 1567.2071530000003 0.2939058704919692 -8.448877827321121 23.0046958231927 3.690459491639426 3.367463648302626 -0.40840749871580756 -1.1459293617839263 -5.317529924550886 0.8637811013357881 0.0 0.0 0.0 -0.966787514534499 0.3692425641302462 -7.54559805685309 25.451240717153667 17.697912362446324 -23.579275326822827 14.517989234053804 0.9748476963305622 -30.983021284402916 0.0 0.0 0.0 -3.911786498712419 -0.27987321518346964 -10.649827134921479 -33.885067856217745 27.559582055918366 17.636818010307852 -44.75963104843129 3.910100705825972 47.82766090724639 0.0 0.0 0.0
-913.8120729999998 267.16397099999983 1567.3342290000003 -0.701293188775118 -7.047146748671294 21.474735485063732 4.412473196602054 2.289476665596942 -0.6970082157390187 -1.4065477793737347 -5.806280218891567 1.0554145668075021 0.0 0.0 0.0 -0.5926420719383849 0.3085903773975483 -5.737699361907675 25.99368122847383 18.037594967430003 -23.456881919500113 14.630648828698604 0.9083120482793561 -30.404173617565693 0.0 0.0 0.0 -3.5394852532120424 -0.1937795671729551 -8.643047313723073 -34.44666953253517 27.51176570248153 16.79295991910089 -45.36365477715741 3.8349798985863353 47.30321275033542 0.0 0.0 0.0
-916.3592529999997 266.87017799999984 1567.9138180000002 -0.0644492389720718 -5.3027025410835815 21.931427855231878 3.8325403337032924 0.3696173519362907 -0.8225425037222681 -1.0889190354078704 -5.850947553242395 0.8317210486354355 0.0 0.0 0.0 -0.6584001219315664 0.33137284394586963 -6.2423253381272 26.277795247066248 18.13035658205045 -23.144007333231247 14.789645684318605 0.885447715390404 -30.149640866418785 0.0 0.0 0.0 -3.7714749814685202 -0.21590307488971708 -8.901172316642421 -34.74319071327626 27.58959284705072 16.52787477482646 -45.613702048445056 3.68510202803212 46.75000247104515 0.0 0.0 0.0
-917.6457519999998 265.3133849999998 1570.1774900000003 1.6606021629467551 -12.786129077789655 28.734603425802938 3.2085286746527535 6.024802448673356 0.0196849251224545 1.006399268913291 -4.820785535697764 -0.654527483115117 0.0 0.0 0.0 -2.61015116312331 0.44062590080875874 -14.18738837045849 26.403349331943957 18.270121628688074 -23.296515824967763 14.339075076257297 0.8390195454328516 -30.00108279108596 0.0 0.0 0.0 -5.860821956248616 -0.7219328584818205 -16.527208533032223 -35.19683658825533 28.059152639382802 16.718038363311216 -44.67216635154206 3.493114273823593 46.644432463624675 0.0 0.0 0.0
-919.5878299999998 264.35488899999984 1571.8039550000003 2.3046266192196527 -14.001769735861393 31.417934617199432 2.837534065234659 6.410703065540458 0.1323779704557843 1.9645435560326618 -4.542302929186802 -1.3273372862114787 0.0 0.0 0.0 -3.307436036055363 0.42052476340413647 -17.192851250320636 26.73396548516246 18.536586841366727 -23.397430315931377 14.00101921304528 0.7682657469971205 -29.59023117165588 0.0 0.0 0.0 -6.753727585547416 -0.9924219328730945 -19.19867323339703 -35.513221737687665 28.2495079543646 16.61845448591215 -44.02522214353723 3.2702426256390646 46.2932773249742 0.0 0.0 0.0
-928.7226559999998 255.4467619999998 1568.3076170000002 -127.06933461305941 8.34082187757284 -157.9947278003874 110.79109889016772 8.850190301343991 -27.714456918787477 11.711445682298615 -36.151766819403136 -9.311007760963111 0.0 0.0 0.0 -8.015050288471643 2.5147295560308605 167.00550664781932 29.95897793317142 15.137936071337151 -7.584053017238894 41.06241896984173 -1.4538344720611382 -19.357646549667933 0.0 0.0 0.0 -9.746665067178803 44.22436849170362 155.49899232338097 -11.58724762640403 1.6710454079463224 -19.33232524122245 -106.18181738641859 -20.505838744827095 13.739337444866244 0.0 0.0 0.0
-930.6303099999998 255.2422639999998 1568.9997560000002 -127.57375138126834 8.13479956365244 -158.2637194423226 111.22982610320163 9.461032123775999 -26.943687348527643 11.904504599945604 -36.243409198095954 -9.473358981571815 0.0 0.0 0.0 -8.09109334127691 3.155390831219872 168.22399964290295 29.860666998394237 15.081188224516124 -7.567777408375836 41.494118837231646 -1.6485265352398204 -18.887206106193577 0.0 0.0 0.0 -11.983835605767462 49.943194314336615 153.69778432613805 -7.416294047508911 0.18462592186015622 -20.39344192051659 -108.62547214441445 -25.7138176863426 9.981276288086871 0.0 0.0 0.0
-932.5690919999997 254.9850009999998 1569.2611080000001 -127.68402793550041 7.707796755765685 -159.10784519674243 111.4178180634439 9.809186588555384 -26.458847620810193 12.051756776054043 -35.76834714807515 -9.578914337249461 0.0 0.0 0.0 -9.123894404697436 9.37773151754609 168.54304187901835 29.51669871578864 13.74188792501875 -3.9973166854797784 46.505678114907994 -3.24161000996742 -15.694168643332935 0.0 0.0 0.0 -14.500751029912538 56.35481824398892 152.2917712776797 -2.489199663068675 -1.4732464494779425 -21.934847872349977 -109.5259627969335 -31.795307552887206 5.143736518760567 0.0 0.0 0.0
-928.8363649999998 264.82965099999984 1571.5812990000002 0.8593127654711233 -11.297438589700963 28.40916705338035 3.8671159359209066 4.2420221547701376 -0.329832040923737 1.5685640549246718 -5.657909835549112 -1.046110387683349 0.0 0.0 0.0 -2.362823293648259 0.45488651351405596 -13.467077537107684 27.85834467411631 19.08707807383381 -22.730825285769846 14.91678241533399 0.6535076484220083 -28.31558996360215 0.0 0.0 0.0 -6.5607209602839545 -0.7357535088297362 -15.111912512159314 -37.0863938407396 28.12318759910265 14.374691462834258 -45.468262791710686 2.7763505563228166 44.191946687025236 0.0 0.0 0.0
-930.5961299999998 265.2898559999998 1570.7120360000001 -0.6450849042476703 -8.700580353368018 22.16811660085233 4.724286295705497 2.7975518049132675 -0.6926879755241041 -0.01959001311006166 -6.37466105272373 0.08171873567162477 0.0 0.0 0.0 -0.7071010802201948 0.3456347900942134 -6.578521631797978 28.15236222250492 19.214690346805657 -22.518026127686277 15.187565139297108 0.6246517206243742 -28.00637672191649 0.0 0.0 0.0 -5.543390699886976 -0.31601284405102115 -8.606843709624806 -37.24703838190899 27.809860225705016 13.653337671505172 -46.5873044243705 2.6754007763347634 43.4633045082559 0.0 0.0 0.0
-932.4796139999997 264.98709099999985 1571.0373540000003 -0.6957449001603166 -9.11463011921367 21.60710821228531 4.744804091285668 3.195321268160073 -0.6423463100122552 -0.04356836275568089 -6.581506939092062 0.10087408165394772 0.0 0.0 0.0 -0.7207265602723065 0.31585906808027464 -6.109264692788224 28.269247727709217 19.215433563465243 -22.296193036772316 15.616464776875679 0.6194183063062204 -27.834504313993214 0.0 0.0 0.0 -5.65173823652503 -0.2876284110095244 -7.85535719251569 -37.41353907775171 27.67501817066737 13.221126302675417 -46.73016149042844 2.5759124795562087 43.13041647330715 0.0 0.0 0.0
